<?xml version="1.0" encoding="UTF-8"?>
<svg version="1.1" xmlns="http://www.w3.org/2000/svg" width="225" height="225">
<path d="M0 0 C74.25 0 148.5 0 225 0 C225 74.25 225 148.5 225 225 C150.75 225 76.5 225 0 225 C0 150.75 0 76.5 0 0 Z " fill="#000000" transform="translate(0,0)"/>
<path d="M0 0 C5.13483642 -0.70478147 7.84256208 0.28320051 12.12109375 3.078125 C14.36186866 4.17754886 15.95593278 4.17047381 18.4375 4.1875 C21.73237316 4.37273137 22.74839656 4.75833422 25.17578125 7.08984375 C26.52695207 8.74127476 27.83136508 10.4324515 29.078125 12.1640625 C30.8614691 14.26979547 30.8614691 14.26979547 33.51953125 14.1171875 C37.71755191 12.22642544 38.96122528 8.39057634 41.05859375 4.46875 C43 2 43 2 46.09765625 1.03125 C47.53431641 1.01578125 47.53431641 1.01578125 49 1 C51.55139742 3.55139742 51.23818862 5.24995512 51.265625 8.734375 C50.92371289 11.65068418 49.95296581 14.23005866 49 17 C49.73114014 16.69707031 50.46228027 16.39414063 51.21557617 16.08203125 C54.53589313 14.71228526 57.86155953 13.35603082 61.1875 12 C62.91323242 11.28457031 62.91323242 11.28457031 64.67382812 10.5546875 C65.78564453 10.10351562 66.89746094 9.65234375 68.04296875 9.1875 C69.06414795 8.76855469 70.08532715 8.34960938 71.13745117 7.91796875 C73.95334805 7.01496046 76.06807585 6.81160327 79 7 C77.6619772 10.79890896 75.97380503 13.56874496 73.4375 16.6875 C70.97527569 19.68776321 70.97527569 19.68776321 69 23 C71.66702526 22.06351045 74.3336236 21.12583379 77 20.1875 C77.74378906 19.92646484 78.48757812 19.66542969 79.25390625 19.39648438 C82.97326788 18.08662224 86.66926341 16.74377179 90.34375 15.3125 C93.86916146 14.04696768 96.29872185 13.72240414 100 14 C99.41372072 18.98337386 98.11797144 20.32304284 95 25 C100.61 25.33 106.22 25.66 112 26 C112.33 27.32 112.66 28.64 113 30 C107.75662583 33.78688134 102.3360859 36.98225643 96.5625 39.875 C95.94745605 40.1851001 95.33241211 40.4952002 94.69873047 40.81469727 C90.25904402 43 90.25904402 43 88 43 C88 43.66 88 44.32 88 45 C88.6084375 44.95359375 89.216875 44.9071875 89.84375 44.859375 C98.69993765 44.49470845 108.96749621 45.98374811 117 50 C116.65315906 52.51459684 116.23325075 53.76208423 114.4375 55.59375 C111.12930422 57.50232449 107.97603687 57.56423791 104.25 57.6875 C103.55261719 57.72166016 102.85523438 57.75582031 102.13671875 57.79101562 C100.42502892 57.87308295 98.7125424 57.93822919 97 58 C97.66 58.825 98.32 59.65 99 60.5 C102.49051306 66.45730674 101.46137226 74.32144749 101 81 C100.67 81.66 100.34 82.32 100 83 C99.63492339 87.59282291 99.63492339 87.59282291 100.984375 91.875 C103.45682128 97.04811838 102.81319337 103.64799457 100.984375 108.9375 C99.02949384 112.98857904 97.79676968 115.46882021 94 118 C91.85522461 118.21118164 91.85522461 118.21118164 89.40234375 118.16015625 C88.07686523 118.1437207 88.07686523 118.1437207 86.72460938 118.12695312 C85.80486328 118.10568359 84.88511719 118.08441406 83.9375 118.0625 C82.1133592 118.02813029 80.28913262 117.99797509 78.46484375 117.97265625 C77.656521 117.95468994 76.84819824 117.93672363 76.01538086 117.91821289 C73.92831102 117.86477012 73.92831102 117.86477012 72 119 C66.09372518 119.68149325 66.09372518 119.68149325 63.20703125 117.8828125 C61.74643267 116.65466073 60.36594471 115.33262899 59 114 C58.53509155 114.97900269 58.53509155 114.97900269 58.06079102 115.9777832 C55.26244447 118.72374985 53.41771759 118.44444814 49.61277771 118.42753601 C48.7595845 118.40375381 47.9063913 118.37997162 47.02734375 118.35546875 C46.14849014 118.34743729 45.26963654 118.33940582 44.364151 118.33113098 C41.55465631 118.3021086 38.74652547 118.24584629 35.9375 118.1875 C33.12508074 118.14502937 30.31269285 118.108161 27.50013733 118.07600403 C25.74941325 118.0542637 23.99875955 118.02555191 22.24827576 117.98930359 C17.99129677 117.78505164 17.99129677 117.78505164 14 119 C11.68468388 119.07404865 9.36718686 119.08340383 7.05078125 119.0625 C6.01451851 119.05682007 6.01451851 119.05682007 4.95732117 119.05102539 C2.00150271 119.03470261 -0.95417751 119.0067669 -3.90991211 118.97949219 C-6.06884099 118.96126326 -8.22774637 118.94925232 -10.38671875 118.9375 C-11.67795654 118.92589844 -12.96919434 118.91429687 -14.29956055 118.90234375 C-17.97792669 118.99941748 -21.37631157 119.40555947 -25 120 C-25.66 118.68 -26.32 117.36 -27 116 C-27.81090088 116.48678223 -27.81090088 116.48678223 -28.63818359 116.98339844 C-31.50741488 118.21840765 -33.66946769 118.25868265 -36.7890625 118.265625 C-37.89507812 118.26820313 -39.00109375 118.27078125 -40.140625 118.2734375 C-41.29046875 118.26570313 -42.4403125 118.25796875 -43.625 118.25 C-44.78257813 118.25773437 -45.94015625 118.26546875 -47.1328125 118.2734375 C-48.23625 118.27085937 -49.3396875 118.26828125 -50.4765625 118.265625 C-51.48799316 118.26336914 -52.49942383 118.26111328 -53.54150391 118.25878906 C-56 118 -56 118 -58 116 C-57.72751741 112.62121589 -57.40958152 109.44966443 -56.48852539 106.18969727 C-55.5115592 101.81068188 -55.77252227 97.28035449 -55.75 92.8125 C-55.729375 91.80896484 -55.70875 90.80542969 -55.6875 89.77148438 C-55.65498388 83.52432483 -56.01435357 77.61699919 -59 72 C-60.92472209 70.18479488 -62.61398921 69.21951662 -65 68 C-63.6302836 64.00499382 -61.74277578 61.19990508 -59 58 C-61.97 58 -64.94 58 -68 58 C-68.33 56.35 -68.66 54.7 -69 53 C-67.453125 52.4121875 -67.453125 52.4121875 -65.875 51.8125 C-65.15957031 51.53921875 -64.44414063 51.2659375 -63.70703125 50.984375 C-61.61504921 50.22365426 -59.50414265 49.51485708 -57.38671875 48.828125 C-56.75717285 48.61953857 -56.12762695 48.41095215 -55.47900391 48.19604492 C-53.61566423 47.58007467 -51.74733574 46.97926058 -49.87890625 46.37890625 C-46.8542245 45.32151163 -46.8542245 45.32151163 -46.08984375 42.83984375 C-46.04537109 41.92912109 -46.04537109 41.92912109 -46 41 C-46.97582031 40.44570312 -47.95164062 39.89140625 -48.95703125 39.3203125 C-50.24222019 38.58859909 -51.52737464 37.85682508 -52.8125 37.125 C-53.45509766 36.76019531 -54.09769531 36.39539063 -54.75976562 36.01953125 C-57.56768798 34.41916099 -60.30964298 32.79357134 -63 31 C-63 30.34 -63 29.68 -63 29 C-58.73319988 26.92581121 -55.22596288 26.7671238 -50.51171875 26.8046875 C-49.80852005 26.8075174 -49.10532135 26.81034729 -48.3808136 26.81326294 C-46.14953108 26.82439849 -43.91865983 26.84949003 -41.6875 26.875 C-40.16862562 26.8850384 -38.6497449 26.89416274 -37.13085938 26.90234375 C-33.42044079 26.92431587 -29.71026058 26.95879953 -26 27 C-26.495 26.1028125 -26.495 26.1028125 -27 25.1875 C-28 23 -28 23 -28 20 C-25.03 20 -22.06 20 -19 20 C-19.495 19.113125 -19.99 18.22625 -20.5 17.3125 C-21.94378674 14.12413762 -22.30159922 12.41812454 -22 9 C-15.02013687 9.31021614 -9.92708478 12.4951958 -4 16 C-3.81824219 14.64455078 -3.81824219 14.64455078 -3.6328125 13.26171875 C-3.46523437 12.08222656 -3.29765625 10.90273438 -3.125 9.6875 C-2.96257812 8.51574219 -2.80015625 7.34398437 -2.6328125 6.13671875 C-2 3 -2 3 0 0 Z " fill="#F6E906" transform="translate(91,52)"/>
<path d="M0 0 C1.72089844 -0.0309375 1.72089844 -0.0309375 3.4765625 -0.0625 C14.41528112 -0.11177351 24.60271049 1.57902808 34.375 6.625 C35.4990625 7.18960938 36.623125 7.75421875 37.78125 8.3359375 C40.98713756 10.31937804 43.26203536 12.55351342 45.875 15.25 C44.81587402 15.27505615 43.75674805 15.3001123 42.66552734 15.32592773 C38.71814873 15.42043924 34.77092824 15.52055135 30.82373047 15.62231445 C29.1186901 15.66549846 27.41361108 15.70718447 25.70849609 15.74731445 C23.25085833 15.80541972 20.79341216 15.86899586 18.3359375 15.93359375 C17.57944916 15.95030624 16.82296082 15.96701874 16.04354858 15.98423767 C12.78852795 16.07437047 9.68403532 16.28266754 6.47119141 16.83227539 C3.875 17.25 3.875 17.25 1.875 16.25 C-0.12460012 16.210008 -2.12547242 16.20653201 -4.125 16.25 C-4.125 16.58 -4.125 16.91 -4.125 17.25 C-3.031875 17.20875 -1.93875 17.1675 -0.8125 17.125 C2.875 17.25 2.875 17.25 5.875 19.25 C6.46484375 21.3515625 6.46484375 21.3515625 6.8125 23.875 C7.67855458 28.96769702 9.37350032 32.74730057 11.875 37.25 C12.205 36.92 12.535 36.59 12.875 36.25 C14.46225993 36.34390278 16.04574685 36.50264522 17.625 36.6875 C32.22532349 38.47183111 32.22532349 38.47183111 45.875 34.25 C47.96206858 31.76024995 49.48917022 29.18183084 50.875 26.25 C51.535 26.58 52.195 26.91 52.875 27.25 C53.29629692 35.11420922 51.9495322 40.86738092 47.1875 47.25 C36.04967671 59.08684986 17.69175222 63.02931188 2.1171875 63.5546875 C-7.74242826 63.71013642 -17.21379096 63.74898365 -26.86669922 61.54003906 C-29.35041892 61.02599148 -29.35041892 61.02599148 -32.3125 62.625 C-32.910625 63.16125 -33.50875 63.6975 -34.125 64.25 C-33.91875 63.38375 -33.7125 62.5175 -33.5 61.625 C-33.7383186 58.18586278 -33.7383186 58.18586278 -36.10546875 56.796875 C-37.88169896 55.81873915 -39.66189336 54.84777866 -41.4453125 53.8828125 C-47.13029743 50.41878378 -52.05361845 44.58599062 -54.125 38.25 C-54.3520062 34.23611767 -54.30041256 30.26499856 -54.125 26.25 C-53.84914062 26.85328125 -53.57328125 27.4565625 -53.2890625 28.078125 C-51.72115187 31.00348846 -49.52009236 32.98096514 -47.125 35.25 C-46.70853663 31.37038394 -46.70853663 31.37038394 -48.625 29.375 C-50.60287985 26.57300354 -50.35352378 24.6016821 -50.125 21.25 C-49.485625 20.96125 -48.84625 20.6725 -48.1875 20.375 C-45.97293921 19.42176549 -45.97293921 19.42176549 -45.125 17.25 C-46.115 17.25 -47.105 17.25 -48.125 17.25 C-48.125 16.59 -48.125 15.93 -48.125 15.25 C-33.69163544 3.24191391 -18.31364999 0.08067687 0 0 Z " fill="#F7EA06" transform="translate(115.125,72.75)"/>
<path d="M0 0 C0.29132812 0.60585937 0.58265625 1.21171875 0.8828125 1.8359375 C3.08659633 6.10480547 5.50432551 9.20041108 10 11 C12.29906556 11.28858657 12.29906556 11.28858657 14.73828125 11.23046875 C16.09276367 11.22756836 16.09276367 11.22756836 17.47460938 11.22460938 C18.87936523 11.20624023 18.87936523 11.20624023 20.3125 11.1875 C21.23740234 11.18685547 22.16230469 11.18621094 23.11523438 11.18554688 C27.18343103 11.1595243 30.84846748 11.02993804 34.85546875 10.23828125 C38 10 38 10 40.375 11.91015625 C44.15159946 14.91682397 47.31482194 14.55539003 52 14.4375 C52.7940625 14.44458984 53.588125 14.45167969 54.40625 14.45898438 C59.51067499 14.40368644 63.2225694 13.7774306 67 10 C68.58725993 10.09390278 70.17074685 10.25264522 71.75 10.4375 C86.35032349 12.22183111 86.35032349 12.22183111 100 8 C102.08706858 5.51024995 103.61417022 2.93183084 105 0 C105.99 0.495 105.99 0.495 107 1 C107.42129692 8.86420922 106.0745322 14.61738092 101.3125 21 C90.17467671 32.83684986 71.81675222 36.77931188 56.2421875 37.3046875 C46.38257174 37.46013642 36.91120904 37.49898365 27.25830078 35.29003906 C24.77458108 34.77599148 24.77458108 34.77599148 21.8125 36.375 C21.214375 36.91125 20.61625 37.4475 20 38 C20.20625 37.13375 20.4125 36.2675 20.625 35.375 C20.3866814 31.93586278 20.3866814 31.93586278 18.01953125 30.546875 C16.24330104 29.56873915 14.46310664 28.59777866 12.6796875 27.6328125 C6.99470257 24.16878378 2.07138155 18.33599062 0 12 C-0.2270062 7.98611767 -0.17541256 4.01499856 0 0 Z " fill="#221D1F" transform="translate(61,99)"/>
<path d="M0 0 C1.72089844 -0.0309375 1.72089844 -0.0309375 3.4765625 -0.0625 C14.41528112 -0.11177351 24.60271049 1.57902808 34.375 6.625 C35.4990625 7.18960938 36.623125 7.75421875 37.78125 8.3359375 C40.98713756 10.31937804 43.26203536 12.55351342 45.875 15.25 C44.81587402 15.27505615 43.75674805 15.3001123 42.66552734 15.32592773 C38.71814873 15.42043924 34.77092824 15.52055135 30.82373047 15.62231445 C29.1186901 15.66549846 27.41361108 15.70718447 25.70849609 15.74731445 C23.25085833 15.80541972 20.79341216 15.86899586 18.3359375 15.93359375 C17.57944916 15.95030624 16.82296082 15.96701874 16.04354858 15.98423767 C12.78852795 16.07437047 9.68403532 16.28266754 6.47119141 16.83227539 C3.875 17.25 3.875 17.25 1.875 16.25 C-1.01835975 16.12420175 -3.55809978 16.10827495 -6.375 16.8125 C-8.125 17.25 -8.125 17.25 -10.125 16.25 C-12.89660626 16.16316555 -15.64274765 16.1344421 -18.4140625 16.15234375 C-19.23248627 16.1537587 -20.05091003 16.15517365 -20.89413452 16.15663147 C-23.51279325 16.1622371 -26.13136704 16.17479052 -28.75 16.1875 C-30.52343627 16.19251428 -32.29687387 16.19707731 -34.0703125 16.20117188 C-38.42190782 16.21220836 -42.7734395 16.22947675 -47.125 16.25 C-33.702891 2.70785364 -18.5582699 0.08175449 0 0 Z " fill="#26201F" transform="translate(115.125,72.75)"/>
<path d="M0 0 C4.22550641 2.76700848 7.32538268 2.65267946 12.25390625 2.52734375 C13.04345703 2.53443359 13.83300781 2.54152344 14.64648438 2.54882812 C19.73163959 2.4934157 23.42903647 1.85221353 27.19140625 -1.91015625 C28.98569634 -1.87216639 30.77861152 -1.7548508 32.56640625 -1.59765625 C34.03207031 -1.47970703 34.03207031 -1.47970703 35.52734375 -1.359375 C38.19140625 -0.91015625 38.19140625 -0.91015625 41.19140625 1.08984375 C40.20140625 1.74984375 39.21140625 2.40984375 38.19140625 3.08984375 C39.18140625 5.06984375 40.17140625 7.04984375 41.19140625 9.08984375 C40.38703125 9.19296875 39.58265625 9.29609375 38.75390625 9.40234375 C35.17837581 10.0923584 31.94969927 11.13394048 28.53515625 12.37109375 C15.57960061 16.34413081 -1.66697441 16.02945714 -13.80859375 10.08984375 C-15.13305081 9.72282553 -16.46477728 9.3780211 -17.80859375 9.08984375 C-16.98359375 8.32671875 -16.15859375 7.56359375 -15.30859375 6.77734375 C-12.46804178 4.33550233 -12.46804178 4.33550233 -12.80859375 1.08984375 C-17.09859375 1.08984375 -21.38859375 1.08984375 -25.80859375 1.08984375 C-25.80859375 0.75984375 -25.80859375 0.42984375 -25.80859375 0.08984375 C-24.65101562 0.02925781 -23.4934375 -0.03132813 -22.30078125 -0.09375 C-20.76170918 -0.17821127 -19.2226472 -0.26285643 -17.68359375 -0.34765625 C-16.92304687 -0.38697266 -16.1625 -0.42628906 -15.37890625 -0.46679688 C-14.63125 -0.50869141 -13.88359375 -0.55058594 -13.11328125 -0.59375 C-12.37432617 -0.63483887 -11.63537109 -0.67592773 -10.87402344 -0.71826172 C-8.60070877 -0.87777486 -8.60070877 -0.87777486 -5.62890625 -1.6953125 C-2.80859375 -1.91015625 -2.80859375 -1.91015625 0 0 Z " fill="#3A3421" transform="translate(100.80859375,110.91015625)"/>
<path d="M0 0 C3 2 3 2 3.66015625 4.27734375 C3.85931641 5.59412109 3.85931641 5.59412109 4.0625 6.9375 C4.60509977 10.44631188 4.97638113 11.9645717 7 15 C7.3125 17.5625 7.3125 17.5625 7 20 C3.84685215 22.10209857 3.13896919 22.2434761 -0.44921875 22.1953125 C-1.72055664 22.18564453 -1.72055664 22.18564453 -3.01757812 22.17578125 C-3.89865234 22.15902344 -4.77972656 22.14226562 -5.6875 22.125 C-6.58017578 22.11597656 -7.47285156 22.10695313 -8.39257812 22.09765625 C-10.59532314 22.07409748 -12.79752588 22.04120329 -15 22 C-15.6171875 19.640625 -15.6171875 19.640625 -16 17 C-15.071875 15.88625 -15.071875 15.88625 -14.125 14.75 C-11.84168434 11.79512092 -11.71915234 10.93910903 -11.5 7.375 C-11.18291041 3.23215551 -11.18291041 3.23215551 -9.375 0.9375 C-6.09757227 -0.35622147 -3.49033727 -0.31730339 0 0 Z " fill="#211C1F" transform="translate(118,90)"/>
<path d="M0 0 C11.91393443 1.32377049 11.91393443 1.32377049 16.3125 4.0625 C18.63831842 8.11114688 18.79342666 11.43566383 18 16 C16.27310955 19.28931514 15.5579199 19.8140267 12 21 C7.99616868 21.13399703 4.0072645 21.04308887 0 21 C0 14.07 0 7.14 0 0 Z " fill="#17131D" transform="translate(95,144)"/>
<path d="M0 0 C0.07431978 4.05671683 0.12868133 8.11316846 0.16479492 12.17041016 C0.17985422 13.54971218 0.20030613 14.92896653 0.22631836 16.30810547 C0.26282415 18.29373403 0.27814853 20.27971618 0.29296875 22.265625 C0.31653442 24.05661621 0.31653442 24.05661621 0.34057617 25.88378906 C-0.02567632 29.23493371 -0.7253954 30.57585392 -3 33 C-7.875 32.125 -7.875 32.125 -9 31 C-9.3934733 26.94765266 -9.41839865 22.88123397 -9.5 18.8125 C-9.55414063 17.67490234 -9.60828125 16.53730469 -9.6640625 15.36523438 C-9.7988086 7.12166041 -9.7988086 7.12166041 -7.4765625 3.86083984 C-3.10177601 0 -3.10177601 0 0 0 Z " fill="#FDF003" transform="translate(166,130)"/>
<path d="M0 0 C2.5625 0.25 2.5625 0.25 5.5625 2.25 C5.75 5.875 5.75 5.875 5.5625 9.25 C4.22916667 7.25 2.89583333 5.25 1.5625 3.25 C-0.49675139 2.52617533 -0.49675139 2.52617533 -2.4375 2.25 C-3.1033614 5.27604339 -3.55830436 8.14585312 -3.4375 11.25 C-1.35540525 13.9995803 -1.35540525 13.9995803 1.5625 16.25 C6.03879374 20.46085314 6.96194274 24.19023141 7.1875 30.3125 C6.87414685 37.8490451 6.87414685 37.8490451 4.625 41.1875 C1.28487566 43.43697149 0.5681224 43.50440333 -3.25 43.125 C-5.3228125 42.691875 -5.3228125 42.691875 -7.4375 42.25 C-7.4375 38.62 -7.4375 34.99 -7.4375 31.25 C-6.7775 32.57 -6.1175 33.89 -5.4375 35.25 C-3.65600894 39.02672717 -3.65600894 39.02672717 -0.25 41.0625 C0.6471875 41.1553125 0.6471875 41.1553125 1.5625 41.25 C2.81747957 37.4850613 3.08314444 35.21991382 2.5625 31.25 C0.96868779 29.03660931 -0.80390052 27.1306535 -2.6796875 25.15234375 C-6.56991271 20.94225558 -7.95489019 17.02176434 -7.734375 11.27734375 C-7.04518726 6.57091698 -5.31610041 0.54524107 0 0 Z " fill="#26201E" transform="translate(180.4375,122.75)"/>
<path d="M0 0 C3.83824385 1.108826 6.42975629 1.90964545 9 5 C10.07495117 7.17651367 10.07495117 7.17651367 11.04296875 9.66796875 C11.39423828 10.56064453 11.74550781 11.45332031 12.10742188 12.37304688 C12.64206055 13.76620117 12.64206055 13.76620117 13.1875 15.1875 C13.55552734 16.12787109 13.92355469 17.06824219 14.30273438 18.03710938 C15.20884501 20.35534049 16.10535397 22.67732041 17 25 C17 19.72 17 14.44 17 9 C16.34 8.67 15.68 8.34 15 8 C15.33 7.34 15.66 6.68 16 6 C17.98 6.99 19.96 7.98 22 9 C21.01 9.33 20.02 9.66 19 10 C19 19.9 19 29.8 19 40 C16.91089042 37.21452056 15.48437528 35.20327648 14.0625 32.171875 C13.72476563 31.45386719 13.38703125 30.73585937 13.0390625 29.99609375 C12.69617187 29.25488281 12.35328125 28.51367188 12 27.75 C11.65710937 27.02425781 11.31421875 26.29851562 10.9609375 25.55078125 C8.71587665 20.74360896 6.87852387 16.00939698 5 11 C5 19.91 5 28.82 5 38 C5.66 38.33 6.32 38.66 7 39 C4.69 39 2.38 39 0 39 C0.66 38.34 1.32 37.68 2 37 C2.19962411 34.4540393 2.27986548 32.01924064 2.265625 29.47265625 C2.26753845 28.72793564 2.2694519 27.98321503 2.27142334 27.21592712 C2.27278514 25.63979759 2.26908903 24.06365685 2.26074219 22.48754883 C2.25005726 20.07542666 2.26062946 17.66405182 2.2734375 15.25195312 C2.27211561 13.72135252 2.2695526 12.19075238 2.265625 10.66015625 C2.26967346 9.93820572 2.27372192 9.21625519 2.27789307 8.47242737 C2.24321486 4.76482331 2.11189101 3.16783652 0 0 Z " fill="#2C261E" transform="translate(49,126)"/>
<path d="M0 0 C0.66 0.33 1.32 0.66 2 1 C1.34 1.66 0.68 2.32 0 3 C-0.32253946 5.56954577 -0.32253946 5.56954577 -0.30859375 8.56640625 C-0.33373047 9.69240234 -0.35886719 10.81839844 -0.38476562 11.97851562 C-0.41951882 14.34044584 -0.4508511 16.70242924 -0.47851562 19.06445312 C-0.78305864 32.14494702 -0.78305864 32.14494702 -4 38 C-7 40 -7 40 -10.5 39.9375 C-14 39 -14 39 -15.70043945 36.78637695 C-17.12549185 33.73093396 -17.34909362 31.82925272 -17.29296875 28.48046875 C-17.2784668 26.9480957 -17.2784668 26.9480957 -17.26367188 25.38476562 C-17.23853516 24.32966797 -17.21339844 23.27457031 -17.1875 22.1875 C-17.17396484 21.11306641 -17.16042969 20.03863281 -17.14648438 18.93164062 C-17.11122577 16.28724545 -17.06194366 13.64388252 -17 11 C-17.66 10.67 -18.32 10.34 -19 10 C-13.7265625 6.77734375 -13.7265625 6.77734375 -12 6 C-11.34 6.33 -10.68 6.66 -10 7 C-10.33 7.33 -10.66 7.66 -11 8 C-11.08758003 9.99964982 -11.10696576 12.0023611 -11.09765625 14.00390625 C-11.09443359 15.21884766 -11.09121094 16.43378906 -11.08789062 17.68554688 C-11.07951172 18.96494141 -11.07113281 20.24433594 -11.0625 21.5625 C-11.05798828 22.84576172 -11.05347656 24.12902344 -11.04882812 25.45117188 C-11.03699545 28.63416022 -11.02051068 31.81705762 -11 35 C-9.35 35.33 -7.7 35.66 -6 36 C-3.61051803 32.41577704 -3.69766832 30.62767404 -3.5859375 26.36328125 C-3.52792969 24.41518555 -3.52792969 24.41518555 -3.46875 22.42773438 C-3.43729483 21.05599427 -3.40604749 19.68424939 -3.375 18.3125 C-3.33680803 16.92901215 -3.29775558 15.54554777 -3.2578125 14.16210938 C-3.16339483 10.7748755 -3.07781882 7.38764931 -3 4 C-3.66 3.67 -4.32 3.34 -5 3 C-2.625 1.4375 -2.625 1.4375 0 0 Z " fill="#29241D" transform="translate(169,126)"/>
<path d="M0 0 C1.46015291 0.28241641 2.91809793 0.57626614 4.375 0.875 C5.18710937 1.03742188 5.99921875 1.19984375 6.8359375 1.3671875 C9 2 9 2 11 4 C10.01 4 9.02 4 8 4 C8.09340698 9.23306886 8.19947109 14.465668 8.31738281 19.69824219 C8.35571565 21.47909473 8.39056089 23.26002584 8.421875 25.04101562 C8.46743271 27.59794234 8.52544107 30.1543261 8.5859375 32.7109375 C8.59748871 33.50994476 8.60903992 34.30895203 8.62094116 35.13217163 C8.57258944 39.53457212 8.57258944 39.53457212 11 43 C7.37 43 3.74 43 0 43 C0.66 42.34 1.32 41.68 2 41 C2.19998324 38.08250865 2.27974887 35.26198071 2.265625 32.34375 C2.26753845 31.48567749 2.2694519 30.62760498 2.27142334 29.74353027 C2.27278544 27.92781278 2.26908728 26.11208555 2.26074219 24.29638672 C2.25004291 21.5111715 2.26063653 18.72660132 2.2734375 15.94140625 C2.27211591 14.17968607 2.26955353 12.41796629 2.265625 10.65625 C2.26967346 9.81976929 2.27372192 8.98328857 2.27789307 8.12145996 C2.44028566 3.58527069 2.44028566 3.58527069 0 0 Z " fill="#1A1419" transform="translate(37,122)"/>
<path d="M0 0 C5 1 5 1 6 2 C6.10087212 4.50924153 6.13972032 6.99036384 6.1328125 9.5 C6.13376923 10.25087891 6.13472595 11.00175781 6.13571167 11.77539062 C6.13639338 13.36588627 6.13453972 14.95638467 6.13037109 16.546875 C6.12502267 18.98964655 6.13031634 21.43223421 6.13671875 23.875 C6.13605797 25.41666707 6.1347768 26.95833403 6.1328125 28.5 C6.13483673 29.23541016 6.13686096 29.97082031 6.13894653 30.72851562 C6.11495161 35.88504839 6.11495161 35.88504839 5 37 C3.35 37 1.7 37 0 37 C0 24.79 0 12.58 0 0 Z " fill="#FCF002" transform="translate(46,127)"/>
<path d="M0 0 C11.25 3.375 11.25 3.375 15 5 C14.67 6.32 14.34 7.64 14 9 C14 8.34 14 7.68 14 7 C11.34771188 5.92474806 8.71631546 4.90543849 6 4 C6 7.3 6 10.6 6 14 C6.99 13.67 7.98 13.34 9 13 C9.66 11.68 10.32 10.36 11 9 C11 13.29 11 17.58 11 22 C10.34 20.68 9.68 19.36 9 18 C8.01 17.34 7.02 16.68 6 16 C6 19.63 6 23.26 6 27 C11.3086849 26.41825155 11.3086849 26.41825155 16 24 C16 25.32 16 26.64 16 28 C10.72 28 5.44 28 0 28 C0 18.76 0 9.52 0 0 Z " fill="#231D1E" transform="translate(74,137)"/>
<path d="M0 0 C0.309375 0.78375 0.61875 1.5675 0.9375 2.375 C1.80141811 5.27610439 1.80141811 5.27610439 4.875 6.6875 C6.421875 7.3371875 6.421875 7.3371875 8 8 C9.33711834 8.65904231 10.67129999 9.3241461 12 10 C10.61518672 10.87191947 9.21654754 11.72190384 7.8125 12.5625 C7.03519531 13.03816406 6.25789063 13.51382813 5.45703125 14.00390625 C2.46143192 15.21833841 1.04117566 14.98863301 -2 14 C-5.08361753 11.84863893 -6.90460414 10.1430938 -9 7 C-9.125 3.8125 -9.125 3.8125 -9 1 C-5.70950422 -1.07179364 -3.663785 -1.44623092 0 0 Z " fill="#27201E" transform="translate(74,93)"/>
<path d="M0 0 C0.3403125 1.1446875 0.3403125 1.1446875 0.6875 2.3125 C2.30893708 5.63258545 3.68255473 6.4570022 7 8 C9.69254991 8.70670728 9.69254991 8.70670728 12 9 C9.43910967 11.98770538 6.63816086 13.54473565 3 15 C-1.39272023 14.89286048 -3.90081304 13.01542515 -7 10 C-8.77628868 6.616593 -9 4.91065931 -9 1 C-6.04335481 -0.4783226 -3.25770263 -0.06032783 0 0 Z " fill="#28231E" transform="translate(134,92)"/>
<path d="M0 0 C0 1.65 0 3.3 0 5 C-2.31 4.67 -4.62 4.34 -7 4 C-6.67 11.59 -6.34 19.18 -6 27 C-7.98 27 -9.96 27 -12 27 C-12 20.07 -12 13.14 -12 6 C-15.89459074 7.68377223 -15.89459074 7.68377223 -18 10 C-18 8.68 -18 7.36 -18 6 C-15.37646482 4.99600476 -12.75132205 3.99665555 -10.125 3 C-9.37863281 2.71382812 -8.63226563 2.42765625 -7.86328125 2.1328125 C-2.2265625 0 -2.2265625 0 0 0 Z " fill="#302C1F" transform="translate(147,138)"/>
<path d="M0 0 C5 2 5 2 7 4 C7.265625 6.2421875 7.265625 6.2421875 7.25 8.875 C7.25515625 9.73867187 7.2603125 10.60234375 7.265625 11.4921875 C6.98890649 14.10473577 6.3185995 15.7500088 5 18 C3.35 18 1.7 18 0 18 C0 12.06 0 6.12 0 0 Z " fill="#F9ED07" transform="translate(101,146)"/>
<path d="M0 0 C-0.33 6.27 -0.66 12.54 -1 19 C-2.98 19 -4.96 19 -7 19 C-7 12.73 -7 6.46 -7 0 C-3 -1 -3 -1 0 0 Z " fill="#29251E" transform="translate(125,146)"/>
<path d="M0 0 C2.1060986 0.25537572 4.20988754 0.52985374 6.3125 0.8125 C7.48425781 0.96332031 8.65601562 1.11414063 9.86328125 1.26953125 C12.99420274 1.99864995 14.09645193 2.49171464 16 5 C15.34 5 14.68 5 14 5 C13.67 5.66 13.34 6.32 13 7 C11.824375 6.0409375 11.824375 6.0409375 10.625 5.0625 C8.20460719 3.01857687 8.20460719 3.01857687 6 2 C6 7.94 6 13.88 6 20 C4.68 20 3.36 20 2 20 C2 13.73 2 7.46 2 1 C1.34 0.67 0.68 0.34 0 0 Z " fill="#322C1D" transform="translate(95,144)"/>
<path d="M0 0 C0.66 0 1.32 0 2 0 C2.08040527 0.68626465 2.16081055 1.3725293 2.24365234 2.07958984 C2.61186489 5.17919361 2.99326017 8.27703442 3.375 11.375 C3.50132813 12.45523438 3.62765625 13.53546875 3.7578125 14.6484375 C3.88671875 15.6796875 4.015625 16.7109375 4.1484375 17.7734375 C4.26364746 18.72653809 4.37885742 19.67963867 4.49755859 20.66162109 C4.81715894 23.17901516 4.81715894 23.17901516 7 25 C3.37 25 -0.26 25 -4 25 C-2.68 24.34 -1.36 23.68 0 23 C0 15.41 0 7.82 0 0 Z " fill="#1F1B1E" transform="translate(41,140)"/>
<path d="M0 0 C0.66 0.33 1.32 0.66 2 1 C1.34 1.66 0.68 2.32 0 3 C-0.37207354 5.71615864 -0.37207354 5.71615864 -0.4140625 8.8828125 C-0.45273438 10.04941406 -0.49140625 11.21601563 -0.53125 12.41796875 C-0.5621875 13.64128906 -0.593125 14.86460937 -0.625 16.125 C-0.66367188 17.35605469 -0.70234375 18.58710938 -0.7421875 19.85546875 C-0.8366999 22.90349376 -0.92225494 25.95150862 -1 29 C-1.66 29.33 -2.32 29.66 -3 30 C-3 21.42 -3 12.84 -3 4 C-3.66 3.67 -4.32 3.34 -5 3 C-2.625 1.4375 -2.625 1.4375 0 0 Z " fill="#756F1E" transform="translate(169,126)"/>
<path d="M0 0 C0.99 0.33 1.98 0.66 3 1 C2.67 9.58 2.34 18.16 2 27 C12.06674136 26.96673877 12.06674136 26.96673877 16 24 C16 25.32 16 26.64 16 28 C10.72 28 5.44 28 0 28 C0 18.76 0 9.52 0 0 Z " fill="#040218" transform="translate(74,137)"/>
<path d="M0 0 C1.12587689 2.76351601 1.05900595 3.8414215 0 6.6875 C-2 9 -2 9 -5.4375 10 C-9 10 -9 10 -11.4375 8.5625 C-11.953125 8.046875 -12.46875 7.53125 -13 7 C-12.67 5.68 -12.34 4.36 -12 3 C-11.278125 3.515625 -10.55625 4.03125 -9.8125 4.5625 C-7.12758775 6.20385183 -7.12758775 6.20385183 -4.3125 6 C-1.7509969 5.18328141 -1.7509969 5.18328141 -0.6875 2.4375 C-0.460625 1.633125 -0.23375 0.82875 0 0 Z " fill="#2A251D" transform="translate(166,156)"/>
<path d="M0 0 C0 1.65 0 3.3 0 5 C-2.31 4.67 -4.62 4.34 -7 4 C-6.67 11.59 -6.34 19.18 -6 27 C-7.98 27 -9.96 27 -12 27 C-10.68 26.67 -9.36 26.34 -8 26 C-8 18.41 -8 10.82 -8 3 C-2 0 -2 0 0 0 Z " fill="#01001C" transform="translate(147,138)"/>
<path d="M0 0 C0.33 0 0.66 0 1 0 C1 1.65 1 3.3 1 5 C-1.91824244 6.66674321 -3.97594379 7.2432008 -7.328125 7.1953125 C-8.52695313 7.18564453 -8.52695313 7.18564453 -9.75 7.17578125 C-10.575 7.15902344 -11.4 7.14226562 -12.25 7.125 C-13.09046875 7.11597656 -13.9309375 7.10695313 -14.796875 7.09765625 C-16.86470604 7.07415817 -18.93238995 7.03828908 -21 7 C-18.08520867 4.08520867 -14.91441455 4.57778933 -11 4.4375 C-5.84255203 4.43198027 -5.84255203 4.43198027 -1 3 C-0.67 2.01 -0.34 1.02 0 0 Z " fill="#C4BC19" transform="translate(125,107)"/>
<path d="M0 0 C2.4375 0.4375 2.4375 0.4375 5.4375 2.4375 C5.625 6.0625 5.625 6.0625 5.4375 9.4375 C4.10416667 7.4375 2.77083333 5.4375 1.4375 3.4375 C0.1175 3.1075 -1.2025 2.7775 -2.5625 2.4375 C-3.2225 5.4075 -3.8825 8.3775 -4.5625 11.4375 C-5.2225 11.4375 -5.8825 11.4375 -6.5625 11.4375 C-6.90968988 7.70520881 -6.79753152 5.83792406 -4.875 2.5625 C-2.5625 0.4375 -2.5625 0.4375 0 0 Z " fill="#18141B" transform="translate(180.5625,122.5625)"/>
<path d="M0 0 C0.33 0 0.66 0 1 0 C1.33 10.89 1.66 21.78 2 33 C2.66 33.33 3.32 33.66 4 34 C1.69 34 -0.62 34 -3 34 C-2.34 33.34 -1.68 32.68 -1 32 C-0.75498505 29.56823603 -0.62675079 27.24135116 -0.5859375 24.8046875 C-0.56657135 24.09724396 -0.5472052 23.38980042 -0.5272522 22.66091919 C-0.46742348 20.39906915 -0.42105899 18.1371683 -0.375 15.875 C-0.33682314 14.3424256 -0.29777158 12.80987272 -0.2578125 11.27734375 C-0.16171961 7.51840376 -0.07770151 3.75936332 0 0 Z " fill="#2E2512" transform="translate(52,131)"/>
<path d="M0 0 C3.8063457 0.67170806 7.35206816 1.72746564 11 3 C10.01 3.99 9.02 4.98 8 6 C2.33846154 4.52307692 2.33846154 4.52307692 0.625 1.875 C0.41875 1.25625 0.2125 0.6375 0 0 Z " fill="#2A241C" transform="translate(76,94)"/>
<path d="M0 0 C0.33 0 0.66 0 1 0 C1 1.98 1 3.96 1 6 C0.34 6 -0.32 6 -1 6 C-1 8.97 -1 11.94 -1 15 C-1.66 15 -2.32 15 -3 15 C-3 11.04 -3 7.08 -3 3 C-2.01 3.33 -1.02 3.66 0 4 C0 2.68 0 1.36 0 0 Z " fill="#1E1A1C" transform="translate(79,141)"/>
<path d="M0 0 C5.445 1.485 5.445 1.485 11 3 C10.01 3.99 9.02 4.98 8 6 C5.06593867 5.85329693 3.49409424 5.39186784 1.1875 3.5625 C0 2 0 2 0 0 Z " fill="#28231B" transform="translate(136,93)"/>
<path d="M0 0 C0.66 0.33 1.32 0.66 2 1 C1.2890625 2.953125 1.2890625 2.953125 0 5 C-2.1640625 5.609375 -2.1640625 5.609375 -4.625 5.75 C-5.44226563 5.80671875 -6.25953125 5.8634375 -7.1015625 5.921875 C-7.72804688 5.94765625 -8.35453125 5.9734375 -9 6 C-9 5.67 -9 5.34 -9 5 C-8.21625 4.896875 -7.4325 4.79375 -6.625 4.6875 C-3.66954819 4.22404978 -3.66954819 4.22404978 -2 1 C-1.34 0.67 -0.68 0.34 0 0 Z " fill="#2A251C" transform="translate(110,159)"/>
<path d="M0 0 C0.33 0 0.66 0 1 0 C1 4.29 1 8.58 1 13 C0.34 11.68 -0.32 10.36 -1 9 C-1.97581759 7.64886795 -2.97029741 6.31053056 -4 5 C-3.01 4.67 -2.02 4.34 -1 4 C-0.26676204 1.98491642 -0.26676204 1.98491642 0 0 Z " fill="#393218" transform="translate(84,146)"/>
<path d="M0 0 C3.375 -0.125 3.375 -0.125 7 0 C7.66 0.66 8.32 1.32 9 2 C8.34 2 7.68 2 7 2 C6.67 2.66 6.34 3.32 6 4 C1.125 2.25 1.125 2.25 0 0 Z " fill="#2A221D" transform="translate(111,90)"/>
<path d="M0 0 C0 1.65 0 3.3 0 5 C-2.31 4.67 -4.62 4.34 -7 4 C-7 3.34 -7 2.68 -7 2 C-2.25 0 -2.25 0 0 0 Z " fill="#34301A" transform="translate(147,138)"/>
<path d="M0 0 C0.66 0.33 1.32 0.66 2 1 C2 3.64 2 6.28 2 9 C0.68 7.68 -0.64 6.36 -2 5 C-1.34 3.35 -0.68 1.7 0 0 Z " fill="#29251B" transform="translate(166,99)"/>
<path d="M0 0 C2.64 0.33 5.28 0.66 8 1 C8.33 2.65 8.66 4.3 9 6 C8.67 5.34 8.34 4.68 8 4 C6.34561387 3.30341637 4.67745682 2.63903117 3 2 C2.01 1.34 1.02 0.68 0 0 Z " fill="#2D291C" transform="translate(80,140)"/>
<path d="M0 0 C0.66 0.33 1.32 0.66 2 1 C1.34 1.66 0.68 2.32 0 3 C-0.39764263 4.98821313 -0.73775349 6.98944339 -1 9 C-1.33 9 -1.66 9 -2 9 C-2 7.35 -2 5.7 -2 4 C-2.99 3.67 -3.98 3.34 -5 3 C-2.625 1.4375 -2.625 1.4375 0 0 Z " fill="#3A3319" transform="translate(169,126)"/>
<path d="M0 0 C3.14737182 0.69941596 6.02588876 1.76078698 9 3 C9 3.66 9 4.32 9 5 C4.68607774 4.5206753 2.83430453 3.2542015 0 0 Z " fill="#E3DA19" transform="translate(135,96)"/>
<path d="M0 0 C0.6875 1.6875 0.6875 1.6875 1 4 C-0.4375 6.75 -0.4375 6.75 -2 9 C-3.32 8.34 -4.64 7.68 -6 7 C-5.071875 6.6596875 -5.071875 6.6596875 -4.125 6.3125 C-1.38589791 4.62070165 -0.94975528 3.00755839 0 0 Z " fill="#3E3819" transform="translate(166,156)"/>
<path d="M0 0 C2 4 2 4 3 7 C2.01 8.32 1.02 9.64 0 11 C0 7.37 0 3.74 0 0 Z " fill="#120F17" transform="translate(173,154)"/>
<path d="M0 0 C0.99 0 1.98 0 3 0 C2.67 1.98 2.34 3.96 2 6 C1.01 5.67 0.02 5.34 -1 5 C-0.67 3.35 -0.34 1.7 0 0 Z " fill="#1E191E" transform="translate(56,135)"/>
</svg>
